HIERARCHY
ROOT Hips
{
	OFFSET -0.001795 -0.223333 0.028219
	CHANNELS 6 Xposition Yposition Zposition Zrotation Yrotation Xrotation 
	JOINT LeftUpLeg
	{
		OFFSET 0.069520 -0.091406 -0.006815
		CHANNELS 3 Zrotation Yrotation Xrotation
		JOINT LeftLeg
		{
			OFFSET 0.034277 -0.375199 -0.004496
			CHANNELS 3 Zrotation Yrotation Xrotation
			JOINT LeftFoot
			{
				OFFSET -0.013596 -0.397961 -0.043693
				CHANNELS 3 Zrotation Yrotation Xrotation
				JOINT LeftToe
				{
					OFFSET 0.026358 -0.055791 0.119288
					CHANNELS 3 Zrotation Yrotation Xrotation
					End Site
					{
						OFFSET 0.000000 0.000000 0.000000
					}
				}
			}
		}
	}
	JOINT RightUpLeg
	{
		OFFSET -0.067670 -0.090522 -0.004320
		CHANNELS 3 Zrotation Yrotation Xrotation
		JOINT RightLeg
		{
			OFFSET -0.038290 -0.382569 -0.008850
			CHANNELS 3 Zrotation Yrotation Xrotation
			JOINT RightFoot
			{
				OFFSET 0.015774 -0.398415 -0.042312
				CHANNELS 3 Zrotation Yrotation Xrotation
				JOINT RightToe
				{
					OFFSET -0.025372 -0.048144 0.123348
					CHANNELS 3 Zrotation Yrotation Xrotation
					End Site
					{
						OFFSET 0.000000 0.000000 0.000000
					}
				}
			}
		}
	}
	JOINT Spine
	{
		OFFSET -0.002533 0.108963 -0.026696
		CHANNELS 3 Zrotation Yrotation Xrotation
		JOINT Spine1
		{
			OFFSET 0.005487 0.135180 0.001092
			CHANNELS 3 Zrotation Yrotation Xrotation
			JOINT Spine2
			{
				OFFSET 0.001457 0.052922 0.025425
				CHANNELS 3 Zrotation Yrotation Xrotation
				JOINT Neck
				{
					OFFSET -0.002778 0.213870 -0.042857
					CHANNELS 3 Zrotation Yrotation Xrotation
					JOINT Head
					{
						OFFSET 0.005152 0.064970 0.051349
						CHANNELS 3 Zrotation Yrotation Xrotation
						End Site
						{
							OFFSET 0.000000 0.000000 0.000000
						}
					}
				}
				JOINT LeftShoulder
				{
					OFFSET 0.078845 0.121749 -0.034090
					CHANNELS 3 Zrotation Yrotation Xrotation
					JOINT LeftArm
					{
						OFFSET 0.090977 0.030469 -0.008868
						CHANNELS 3 Zrotation Yrotation Xrotation
						JOINT LeftForeArm
						{
							OFFSET 0.259612 -0.012772 -0.027456
							CHANNELS 3 Zrotation Yrotation Xrotation
							JOINT LeftHand
							{
								OFFSET 0.249234 0.008986 -0.001171
								CHANNELS 3 Zrotation Yrotation Xrotation
								End Site
								{
									OFFSET 0.000000 0.000000 0.000000
								}
							}
						}
					}
				}
				JOINT RightShoulder
				{
					OFFSET -0.081759 0.118833 -0.038615
					CHANNELS 3 Zrotation Yrotation Xrotation
					JOINT RightArm
					{
						OFFSET -0.096012 0.032551 -0.009143
						CHANNELS 3 Zrotation Yrotation Xrotation
						JOINT RightForeArm
						{
							OFFSET -0.253742 -0.013329 -0.021401
							CHANNELS 3 Zrotation Yrotation Xrotation
							JOINT RightHand
							{
								OFFSET -0.255298 0.007772 -0.005559
								CHANNELS 3 Zrotation Yrotation Xrotation
								End Site
								{
									OFFSET 0.000000 0.000000 0.000000
								}
							}
						}
					}
				}
			}
		}
	}
}
MOTION
Frames: 13
Frame Time: 0.050000
0.005385 0.958768 -0.047704 -1.879172 8.952846 -2.079926 9.055788 -0.265477 1.316701 -4.681600 0.407824 -1.409130 -2.295334 3.180338 14.842352 0.000000 0.000000 0.000000 -8.014283 -0.285605 5.373849 7.263840 -0.898326 -2.210514 -1.274371 -7.249248 16.167347 0.000000 0.000000 0.000000 -1.468101 -0.354446 9.802881 -12.959563 4.415377 -18.115180 -3.447729 23.598633 27.256967 20.539433 -6.940567 -23.971863 0.000000 0.000000 0.000000 -15.732197 -28.402424 5.767770 -51.472873 -28.495461 4.802485 29.352093 -35.532304 -11.503489 0.000000 0.000000 0.000000 15.883989 20.844678 16.149242 76.063412 53.900124 35.615348 -68.960578 83.262371 -46.956887 0.000000 0.000000 0.000000 
0.005402 0.958738 -0.048223 -1.983383 9.263589 -1.746793 9.078801 -0.282805 0.998335 -4.520328 0.390129 -1.695500 -2.420692 3.036063 14.867175 0.000000 0.000000 0.000000 -7.846283 -0.284673 5.223681 7.193807 -0.886234 -2.586688 -1.366866 -7.389857 16.330719 0.000000 0.000000 0.000000 -1.372654 -0.356087 9.642892 -12.663388 4.337111 -18.004843 -3.457220 23.458580 27.460279 20.479131 -6.885156 -23.981461 0.000000 0.000000 0.000000 -15.762643 -28.326394 5.698370 -52.142463 -28.288919 4.769397 29.899666 -37.371090 -12.376348 0.000000 0.000000 0.000000 15.905038 20.647475 16.083283 75.653023 53.558392 34.998872 -70.030491 82.971313 -47.604950 0.000000 0.000000 0.000000 
0.005454 0.958740 -0.048757 -2.029763 9.498747 -1.396980 9.083189 -0.297373 0.727289 -4.446180 0.379398 -2.053877 -2.524551 2.937896 14.948485 0.000000 0.000000 0.000000 -7.884672 -0.267395 4.923111 7.384956 -0.903497 -2.929950 -1.505176 -7.692677 16.873840 0.000000 0.000000 0.000000 -1.305587 -0.355360 9.507006 -12.430927 4.281432 -17.852890 -3.403518 23.489336 27.486508 20.492948 -6.893703 -23.901145 0.000000 0.000000 0.000000 -15.714055 -28.227127 5.595219 -52.840728 -27.676106 4.566952 30.057462 -39.639798 -13.298774 0.000000 0.000000 0.000000 16.361179 20.175038 16.116407 75.410898 52.947219 34.149665 -67.247356 82.912724 -44.813692 0.000000 0.000000 0.000000 
0.005472 0.958657 -0.049211 -2.053477 9.858490 -1.170000 9.041729 -0.309893 0.588378 -4.320228 0.364175 -2.437582 -2.694150 2.745357 14.998562 0.000000 0.000000 0.000000 -7.689088 -0.268548 4.742105 7.243032 -0.886160 -3.279681 -1.896439 -8.415569 17.474357 0.000000 0.000000 0.000000 -1.267738 -0.358879 9.479716 -12.195364 4.202324 -17.955506 -3.338171 23.543194 28.024758 20.464508 -6.728597 -24.212237 0.000000 0.000000 0.000000 -15.483830 -27.916366 5.394674 -53.428614 -27.210216 4.318510 29.656372 -43.105620 -14.437815 0.000000 0.000000 0.000000 16.264518 19.763098 15.912538 75.762070 52.241134 33.790120 -67.195256 82.360834 -44.121337 0.000000 0.000000 0.000000 
0.005362 0.958553 -0.049624 -1.991487 10.010366 -1.086796 9.023804 -0.314733 0.436982 -4.393189 0.366955 -2.418013 -2.765494 2.660475 15.009749 0.000000 0.000000 0.000000 -7.809755 -0.264066 4.669562 7.368210 -0.902240 -3.302329 -1.968892 -8.520259 17.491082 0.000000 0.000000 0.000000 -1.375807 -0.353753 9.551737 -11.953455 4.161726 -17.680460 -3.235704 23.696168 28.147076 20.568699 -6.683042 -24.453375 0.000000 0.000000 0.000000 -15.189579 -27.736726 5.278893 -54.071694 -26.966626 4.178618 28.428563 -46.020290 -14.982846 0.000000 0.000000 0.000000 16.598742 19.505979 15.995918 75.034115 51.654658 32.673652 -65.046417 81.662299 -41.575305 0.000000 0.000000 0.000000 
0.005140 0.958505 -0.049996 -2.040603 10.241899 -0.923269 8.953800 -0.321592 0.156832 -4.147131 0.349312 -2.389321 -2.850597 2.547448 14.974826 0.000000 0.000000 0.000000 -7.813712 -0.262057 4.581909 7.595787 -0.929074 -3.416394 -2.140387 -8.778037 17.469447 0.000000 0.000000 0.000000 -1.298180 -0.363532 9.596693 -11.908695 4.155873 -17.580818 -3.003253 23.718101 28.471584 20.242832 -6.323717 -24.735070 0.000000 0.000000 0.000000 -15.131370 -27.568407 5.154716 -54.334996 -26.766241 4.074220 26.447387 -48.831601 -15.034982 0.000000 0.000000 0.000000 16.367714 19.270776 15.794886 74.628479 51.026554 31.916776 -60.724694 80.277095 -36.809822 0.000000 0.000000 0.000000 
0.004693 0.958384 -0.050397 -1.932244 10.619135 -0.719303 8.878360 -0.331323 0.006515 -4.158112 0.344103 -2.676227 -3.047392 2.336383 15.074112 0.000000 0.000000 0.000000 -7.935867 -0.260570 4.497274 7.831957 -0.952294 -3.819869 -2.548953 -9.507531 18.028740 0.000000 0.000000 0.000000 -1.477675 -0.351680 9.635531 -11.669508 4.110244 -17.343795 -3.079707 23.728562 28.528502 20.045003 -6.150933 -24.715902 0.000000 0.000000 0.000000 -15.115092 -27.550494 5.072036 -54.655572 -26.544192 4.001190 24.645497 -50.838609 -14.868013 0.000000 0.000000 0.000000 16.488805 19.090946 15.825624 73.437933 50.641358 30.758494 -54.455168 78.663591 -30.577737 0.000000 0.000000 0.000000 
0.003989 0.958324 -0.050875 -1.886411 10.875119 -0.652833 8.831353 -0.336828 -0.193705 -4.078613 0.337184 -2.601561 -3.169168 2.191279 15.090301 0.000000 0.000000 0.000000 -7.839641 -0.264339 4.421064 7.955673 -0.965229 -4.048547 -3.143095 -10.539278 18.478619 0.000000 0.000000 0.000000 -1.454360 -0.369715 9.929796 -11.779241 4.145662 -17.287766 -3.062150 23.695901 28.772323 19.845716 -6.010892 -24.671156 0.000000 0.000000 0.000000 -14.785368 -27.641465 5.157080 -54.878569 -26.434833 3.851178 23.177331 -52.536262 -14.658763 0.000000 0.000000 0.000000 16.422238 18.990771 15.759830 72.264112 50.579724 29.957475 -48.918428 75.973846 -24.956444 0.000000 0.000000 0.000000 
0.002892 0.958201 -0.051520 -1.899127 11.032398 -0.477412 8.862751 -0.347399 -0.600868 -3.989575 0.331197 -2.385642 -3.219837 2.127495 15.076079 0.000000 0.000000 0.000000 -7.773792 -0.261154 4.329167 8.135493 -0.985317 -4.133208 -3.340712 -10.813986 18.134124 0.000000 0.000000 0.000000 -1.635956 -0.371072 10.283415 -11.807840 4.166178 -17.143710 -3.124995 23.655999 28.610578 19.905898 -6.119616 -24.467639 0.000000 0.000000 0.000000 -14.670068 -27.809095 5.256635 -54.843160 -26.670667 3.933341 22.322193 -52.879276 -14.298021 0.000000 0.000000 0.000000 17.031480 19.070908 16.125411 70.661374 51.334982 29.370480 -43.477510 72.139301 -19.630368 0.000000 0.000000 0.000000 
0.001422 0.957979 -0.052245 -1.997831 11.354102 -0.339583 9.005498 -0.365170 -0.819550 -3.884219 0.320954 -2.539579 -3.366557 1.958107 15.107226 0.000000 0.000000 0.000000 -7.547635 -0.268033 4.278107 8.125231 -0.985402 -4.335590 -3.470648 -10.980142 18.086232 0.000000 0.000000 0.000000 -1.588148 -0.393790 10.601312 -11.811665 4.162209 -17.180284 -3.048909 23.513688 28.805093 19.624228 -5.943055 -24.380190 0.000000 0.000000 0.000000 -14.966298 -28.286395 5.427982 -54.707161 -26.777317 4.035119 21.560262 -52.996493 -13.886351 0.000000 0.000000 0.000000 17.087938 19.317425 16.305311 69.737215 51.971254 29.277929 -40.738234 68.853339 -16.898833 0.000000 0.000000 0.000000 
-0.000189 0.957883 -0.052829 -2.041652 11.422076 -0.263635 9.129030 -0.374382 -0.982528 -3.843841 0.317883 -2.545376 -3.400843 1.939436 15.162135 0.000000 0.000000 0.000000 -7.377129 -0.273087 4.306444 8.092893 -0.970937 -4.806074 -3.566451 -11.170128 18.490969 0.000000 0.000000 0.000000 -1.690060 -0.398395 10.881558 -11.783385 4.164066 -17.075340 -3.155989 23.336896 28.632881 19.537872 -6.081573 -23.860227 0.000000 0.000000 0.000000 -15.028292 -28.396914 5.518895 -54.413271 -27.001413 4.142607 21.263158 -52.880849 -13.635548 0.000000 0.000000 0.000000 17.735849 19.302783 16.605679 69.192855 52.227073 28.927307 -38.933307 67.438277 -15.375898 0.000000 0.000000 0.000000 
-0.001723 0.957807 -0.053160 -2.047780 11.540753 -0.297510 9.113418 -0.374982 -0.919080 -3.634008 0.304702 -2.710818 -3.476081 1.870419 15.224878 0.000000 0.000000 0.000000 -7.300358 -0.282426 4.383369 8.238770 -0.978223 -5.204725 -3.849584 -11.689318 19.089432 0.000000 0.000000 0.000000 -1.596850 -0.423376 11.165188 -11.661792 4.121446 -17.187386 -3.059268 23.201677 28.872296 19.357423 -6.067415 -23.579234 0.000000 0.000000 0.000000 -15.380883 -28.936954 5.761252 -53.749635 -26.776305 4.081358 21.394391 -53.067801 -13.707555 0.000000 0.000000 0.000000 18.405187 19.302266 16.923567 68.395513 51.932753 27.934462 -36.881302 67.778142 -14.118329 0.000000 0.000000 0.000000 
-0.003126 0.957764 -0.053324 -1.968333 11.335916 -0.223168 9.202978 -0.375282 -0.815152 -3.796152 0.314693 -2.978191 -3.410513 2.011481 15.386219 0.000000 0.000000 0.000000 -7.467141 -0.266221 4.270818 8.454390 -0.988794 -5.418797 -3.760566 -11.607746 19.483625 0.000000 0.000000 0.000000 -1.583886 -0.430646 11.337182 -11.741748 4.142754 -17.174133 -3.094500 22.881888 28.822744 19.179285 -6.067404 -23.409704 0.000000 0.000000 0.000000 -15.301429 -28.972799 5.934607 -53.256149 -27.014454 4.122155 22.138036 -52.501334 -13.796482 0.000000 0.000000 0.000000 18.966975 19.303553 17.106635 68.667049 51.202321 27.285894 -36.480138 70.673394 -14.382904 0.000000 0.000000 0.000000 
